<?xml version="1.0" encoding="UTF-8" standalone="no"?>
<!-- Created with Inkscape (http://www.inkscape.org/) -->

<svg
   width="100mm"
   height="100mm"
   viewBox="0 0 100 100"
   version="1.1"
   id="svg1360"
   inkscape:version="1.2.2 (b0a8486541, 2022-12-01)"
   sodipodi:docname="nixos-rb-logo.svg"
   xmlns:inkscape="http://www.inkscape.org/namespaces/inkscape"
   xmlns:sodipodi="http://sodipodi.sourceforge.net/DTD/sodipodi-0.dtd"
   xmlns="http://www.w3.org/2000/svg"
   xmlns:svg="http://www.w3.org/2000/svg">
  <sodipodi:namedview
     id="namedview1362"
     pagecolor="#ffffff"
     bordercolor="#666666"
     borderopacity="1.0"
     inkscape:showpageshadow="2"
     inkscape:pageopacity="0.0"
     inkscape:pagecheckerboard="0"
     inkscape:deskcolor="#d1d1d1"
     inkscape:document-units="mm"
     showgrid="false"
     inkscape:zoom="0.914906"
     inkscape:cx="-154.6607"
     inkscape:cy="-28.41822"
     inkscape:window-width="2174"
     inkscape:window-height="2110"
     inkscape:window-x="0"
     inkscape:window-y="0"
     inkscape:window-maximized="1"
     inkscape:current-layer="layer1" />
  <defs
     id="defs1357" />
  <g
     inkscape:label="Layer 1"
     inkscape:groupmode="layer"
     id="layer1">
    <g
       id="g2194"
       transform="translate(-55.265822,-98.644597)">
      <g
         id="circle2_25_"
         transform="matrix(0.44054972,0.44054972,-0.44054972,0.44054972,99.724448,99.525068)"
         style="display:inline">
					<circle
   fill="#1e5b96"
   cx="47.136002"
   cy="-7.244"
   r="9.8000002"
   id="circle187" />

				</g>
      <g
         id="circle8_25_"
         transform="matrix(0.44054972,0.44054972,-0.44054972,0.44054972,99.724448,99.525068)"
         style="display:inline">
					<circle
   fill="#1e5b96"
   cx="5.6999998"
   cy="34.193001"
   r="9.8000002"
   id="circle196" />

				</g>
      <g
         id="g24_25_"
         transform="matrix(0.44054972,0.44054972,-0.44054972,0.44054972,99.724448,99.525068)"
         style="display:inline">
					<g
   id="polygon22_25_">
						<polygon
   fill="#2b89d6"
   points="8.953,14.818 24.863,14.747 24.792,30.657 35.681,19.768 35.681,3.929 19.842,3.929 "
   id="polygon211" />

					</g>

				</g>
      <g
         id="circle4_25_-7"
         transform="matrix(0.44054972,0.44054972,-0.44054972,0.44054972,99.713681,126.10475)"
         style="display:inline">
					<circle
   fill="#1e5b96"
   cx="47.207001"
   cy="75.699997"
   r="9.8000002"
   id="circle190-5" />

				</g>
      <g
         id="circle6_25_-3"
         transform="matrix(0.44054972,0.44054972,-0.44054972,0.44054972,99.713681,126.10475)"
         style="display:inline">
					<circle
   fill="#1e5b96"
   cx="88.643997"
   cy="34.264"
   r="9.8000002"
   id="circle193-5" />

				</g>
      <g
         id="g20_25_-3"
         transform="matrix(0.44054972,0.44054972,-0.44054972,0.44054972,99.713681,126.10475)"
         style="display:inline">
					<g
   id="polygon18_25_-6">
						<polygon
   fill="#2b89d6"
   points="66.582,56.467 66.511,72.377 77.33,61.558 77.401,45.648 61.491,45.719 50.672,56.537 "
   id="polygon207-0" />

					</g>

				</g>
      <g
         id="circle2_25_-1"
         transform="matrix(-0.14906371,0.60493646,-0.60493646,-0.14906371,144.8778,118.5738)"
         style="display:inline">
					<circle
   fill="#1e5b96"
   cx="47.136002"
   cy="-7.244"
   r="9.8000002"
   id="circle187-8" />

				</g>
      <g
         id="g24_25_-9"
         transform="matrix(-0.14906371,0.60493646,-0.60493646,-0.14906371,144.8778,118.5738)"
         style="display:inline">
					<g
   id="polygon22_25_-3">
						<polygon
   fill="#2b89d6"
   points="24.792,30.657 35.681,19.768 35.681,3.929 19.842,3.929 8.953,14.818 24.863,14.747 "
   id="polygon211-1" />

					</g>

				</g>
      <g
         id="circle4_25_-79-7"
         transform="matrix(-0.14906371,0.60493646,-0.60493646,-0.14906371,121.12849,131.50954)"
         style="display:inline">
					<circle
   fill="#1e5b96"
   cx="47.207001"
   cy="75.699997"
   r="9.8000002"
   id="circle190-2-8" />

				</g>
      <g
         id="g20_25_-36-0"
         transform="matrix(-0.14906371,0.60493646,-0.60493646,-0.14906371,121.12849,131.50954)"
         style="display:inline">
					<g
   id="polygon18_25_-1-6">
						<polygon
   fill="#2b89d6"
   points="77.33,61.558 77.401,45.648 61.491,45.719 50.672,56.537 66.582,56.467 66.511,72.377 "
   id="polygon207-2-1" />

					</g>

				</g>
      <g
         id="g12_25_-5-6-5"
         transform="matrix(0.1646695,0.60087608,-0.60087608,0.1646695,75.011836,89.995642)"
         style="display:inline">
					<g
   id="polygon10_25_-9-1-2">
						<polygon
   fill="#2b89d6"
   points="77.401,6.899 66.582,-3.92 66.582,11.919 50.743,11.919 61.561,22.738 77.401,22.738 "
   id="polygon199-22-0-5" />

					</g>

				</g>
      <g
         id="g16_25_-8-6-4-9"
         transform="matrix(0.1646695,0.60087608,-0.60087608,0.1646695,161.96995,138.88029)"
         style="display:inline">
					<g
   id="polygon14_25_-9-3-7-2">
						<polygon
   fill="#2b89d6"
   points="24.863,37.799 24.863,53.638 9.023,53.638 19.842,64.457 35.681,64.457 35.681,48.618 "
   id="polygon203-7-2-4-6" />

					</g>

				</g>
    </g>
  </g>
</svg>
